<svg id="visual" viewBox="0 0 960 540" width="960" height="540" xmlns="http://www.w3.org/2000/svg" xmlns:xlink="http://www.w3.org/1999/xlink" version="1.1"><rect x="0" y="0" width="960" height="540" fill="#f0f0f0"></rect><defs><linearGradient id="grad1_0" x1="43.8%" y1="0%" x2="100%" y2="100%"><stop offset="14.444444444444446%" stop-color="#f0f0f0" stop-opacity="1"></stop><stop offset="85.55555555555554%" stop-color="#f0f0f0" stop-opacity="1"></stop></linearGradient></defs><defs><linearGradient id="grad2_0" x1="0%" y1="0%" x2="56.3%" y2="100%"><stop offset="14.444444444444446%" stop-color="#f0f0f0" stop-opacity="1"></stop><stop offset="85.55555555555554%" stop-color="#f0f0f0" stop-opacity="1"></stop></linearGradient></defs><g transform="translate(960, 0)"><path d="M0 486C-55.2 450.5 -110.4 415 -160 386.2C-209.5 357.4 -253.5 335.3 -305.5 305.5C-357.5 275.7 -417.6 238.2 -449 186C-480.4 133.8 -483.2 66.9 -486 0L0 0Z" fill="#F67280"></path></g><g transform="translate(0, 540)"><path d="M0 -486C60.4 -472 120.8 -458 181 -437C241.2 -416 301.3 -388 343.7 -343.7C386 -299.3 410.7 -238.7 431.5 -178.7C452.2 -118.7 469.1 -59.4 486 0L0 0Z" fill="#F67280"></path></g></svg>